<?xml version="1.0" encoding="UTF-8"?>
<svg xmlns="http://www.w3.org/2000/svg" version="1.1" viewBox="0 0 883.88 499.78">
  <defs>
    <style>
      .cls-1 {
        fill: #2e2f2f;
      }
    </style>
  </defs>
  <!-- Generator: Adobe Illustrator 28.7.1, SVG Export Plug-In . SVG Version: 1.2.0 Build 142)  -->
  <g>
    <g id="Warstwa_1">
      <g>
        <path class="cls-1" d="M223.82,475.39h-2.49L60.32,88.83c-5.49-12.95-10.83-24.59-16.1-34.84-5.2-10.32-10.68-17.34-16.54-21.08v-2.49h67.91v1.76c-5.85,1.76-9.66,4.21-11.42,7.32-1.68,3.15-2.49,6.37-2.49,9.66,0,4.21.81,8.64,2.49,13.32l141.54,348.21c1.65,4.21,4.57,6.29,8.78,6.29s7.94-4.39,11.27-13.17L384.68,59.85c1.76-4.17,2.63-8.12,2.63-11.86,0-4.17-1.72-7.76-5.12-10.68-3.33-2.93-10.25-4.61-20.78-5.12v-1.76h56.06v1.76c-11.34,5.09-20.16,15.19-26.49,30.3l-167.15,412.91Z"/>
        <path class="cls-1" d="M607.22,470.42h-131.44v-1.32c5.85-4.17,9.29-12.33,10.39-24.44,1.06-12.19,1.61-26.05,1.61-41.57V97.62c0-15.88-.55-29.79-1.61-41.71-1.1-12-4.54-20.09-10.39-24.3v-1.17h130.85c53.57,0,98.87,9.77,135.98,29.27,37.18,19.43,65.35,45.48,84.6,78.16,19.32,32.71,28.98,69.16,28.98,109.34,0,30.26-5.05,58.91-15.08,85.92-10.06,27.04-25.29,50.79-45.67,71.28-20.31,20.49-46.07,36.67-77.28,48.45-31.25,11.71-68.21,17.56-110.95,17.56ZM548.82,464.12h65.87c48.19,0,87.46-8.78,117.83-26.35,30.44-17.64,52.88-42.08,67.33-73.33,14.53-31.21,21.81-67.11,21.81-107.73,0-43.62-8.12-81.97-24.3-115.05-16.1-33.15-40.62-58.99-73.48-77.43-32.9-18.44-74.5-27.66-124.85-27.66h-50.2c-11.34,0-19.1,2.12-23.27,6.29-4.21,4.21-6.29,11.97-6.29,23.27v368.41c0,11.34,2.09,19.1,6.29,23.27,4.17,4.21,11.93,6.29,23.27,6.29Z"/>
      </g>
    </g>
  </g>
</svg>