<?xml version="1.0" encoding="UTF-8"?>
<svg xmlns="http://www.w3.org/2000/svg" version="1.1" viewBox="0 0 979.37 616.54">
  <defs>
    <style>
      .cls-1 {
        fill: #fff;
      }
    </style>
  </defs>
  <!-- Generator: Adobe Illustrator 28.7.1, SVG Export Plug-In . SVG Version: 1.2.0 Build 142)  -->
  <g>
    <g id="Warstwa_1">
      <g>
        <path class="cls-1" d="M308.47,374.87h-1.92L182.27,76.49c-4.24-10-8.36-18.98-12.43-26.89-4.01-7.96-8.25-13.39-12.77-16.27v-1.92h52.42v1.36c-4.52,1.36-7.46,3.25-8.81,5.65-1.3,2.43-1.92,4.91-1.92,7.46,0,3.25.62,6.67,1.92,10.28l109.25,268.77c1.27,3.25,3.53,4.86,6.78,4.86s6.13-3.39,8.7-10.17L432.63,54.12c1.36-3.22,2.03-6.27,2.03-9.15,0-3.22-1.33-5.99-3.95-8.25-2.57-2.26-7.91-3.56-16.04-3.95v-1.36h43.27v1.36c-8.76,3.93-15.56,11.72-20.45,23.39l-129.02,318.71Z"/>
        <path class="cls-1" d="M604.41,371.02h-101.45v-1.02c4.52-3.22,7.17-9.52,8.02-18.87.82-9.41,1.24-20.11,1.24-32.09V83.27c0-12.26-.42-22.99-1.24-32.2-.85-9.26-3.5-15.51-8.02-18.75v-.9h101c41.35,0,76.32,7.54,104.96,22.6,28.7,15,50.44,35.11,65.3,60.33,14.91,25.25,22.37,53.38,22.37,84.39,0,23.36-3.9,45.47-11.64,66.32-7.77,20.87-19.52,39.2-35.25,55.02-15.68,15.82-35.56,28.3-59.65,37.4-24.12,9.04-52.65,13.56-85.64,13.56ZM559.33,366.17h50.84c37.2,0,67.5-6.78,90.95-20.34,23.5-13.61,40.81-32.48,51.97-56.6,11.21-24.09,16.83-51.8,16.83-83.15,0-33.67-6.27-63.27-18.75-88.8-12.43-25.59-31.35-45.53-56.71-59.77-25.39-14.24-57.51-21.35-96.37-21.35h-38.75c-8.76,0-14.74,1.64-17.96,4.86-3.25,3.25-4.86,9.24-4.86,17.96v284.36c0,8.76,1.61,14.74,4.86,17.96,3.22,3.25,9.21,4.86,17.96,4.86Z"/>
        <path class="cls-1" d="M33.02,443.64c1.58.08,2.97.17,4.18.23,1.27.08,2.49.11,3.62.11h11.41c1.58,0,3.62-.03,6.1-.11l.11,1.92c-2.49.17-4.49.62-5.99,1.36-1.44.68-2.15,1.55-2.15,2.6,0,1.81,2.63,9.77,7.91,23.84,2.54,7.09,4.55,12.51,5.99,16.27,1.5,3.78,2.4,5.96,2.71,6.55.45-1.13.85-2.26,1.24-3.39.45-1.19.93-2.37,1.47-3.5.82-1.86,1.5-3.5,2.03-4.86.51-1.36.85-2.06,1.02-2.15l8.59-19.32c-1.44-3.3-2.65-6.1-3.62-8.36-.99-2.26-1.78-3.95-2.37-5.08-1.13-2.4-3.22-3.64-6.21-3.73l-.23-2.03c.96,0,2.03.06,3.16.11h4.75c2.99,0,5.82-.03,8.47-.11,2.71-.06,4.97-.17,6.78-.34l.11,1.69c-2.65.4-4.58.85-5.76,1.36-1.21.54-1.81,1.44-1.81,2.71,0,1.98,2.37,9.57,7.12,22.82,2.32,6.55,4.29,11.92,5.87,16.04,1.58,4.07,2.71,6.86,3.39,8.36,1.72-4.52,3.45-8.98,5.2-13.44,1.72-4.43,3.39-9.04,4.97-13.78,3.22-9.49,4.86-15.36,4.86-17.62,0-4.21-3.22-6.33-9.6-6.33l-.34-1.58,11.75.11h5.08c2.26-.06,4.66-.17,7.23-.34l-.11,1.69c-3.02.23-5.42,1.47-7.23,3.73-.85,1.07-1.75,2.57-2.71,4.52-.9,1.98-1.86,4.38-2.82,7.23l-9.83,27c-1.53,4.24-2.6,7.2-3.28,8.93-.4.76-.99,2.32-1.81,4.63-.76,2.26-1.78,5.31-3.05,9.15l-1.47-.11c-1.3-3.62-2.43-7.06-3.39-10.39-.99-3.39-2.12-6.81-3.39-10.28l-8.36-22.82c-3.78,7.99-6.72,14.43-8.81,19.32-2.03,4.83-3.39,8.19-4.07,10.06-.85,2.43-1.67,4.83-2.49,7.23-.76,2.34-1.53,4.66-2.26,7h-1.36l-12.43-36.27c-2.2-6.33-4.07-11.44-5.65-15.36-1.58-3.98-2.82-6.84-3.73-8.59-1.81-3.3-4.75-4.86-8.81-4.63v-2.03Z"/>
        <path class="cls-1" d="M136.48,443.3c1.58,0,3.64.11,6.21.34,2.63.17,5.14.23,7.57.23,1.19,0,2.43-.03,3.73-.11,1.36-.06,2.49-.14,3.39-.23.96-.06,1.92-.11,2.82-.11.96,0,2.26-.03,3.84-.11v2.26c-2.12,0-3.81.08-5.08.23-1.21.17-2.2.68-2.94,1.58-.4.45-.68,1.3-.9,2.49-.23,1.13-.42,2.6-.56,4.41-.17,1.81-.28,3.93-.34,6.33-.08,2.34-.11,4.86-.11,7.57l.11,24.06v6.55c.06,1.89.28,3.28.68,4.18.37,1.07,1.27,1.81,2.71,2.26,1.41.4,3.42.56,5.99.56l-.23,1.92c-2.49-.08-4.91-.17-7.23-.23-2.26-.06-4.26-.11-5.99-.11h-3.39c-1.07,0-2.12.06-3.16.11h-3.39c-1.21.06-2.65.14-4.29.23v-1.81c5.11-.23,8.25-1.3,9.38-3.28.59-1.13,1.05-3.64,1.36-7.57.37-3.98.56-8.76.56-14.35v-6.67c0-2.03-.06-4.32-.11-6.89,0-2.63-.06-5.14-.11-7.57-.08-2.4-.2-4.55-.34-6.44-.08-1.86-.23-3.11-.45-3.73-.17-.68-.42-1.24-.79-1.69-.4-.51-.96-.93-1.69-1.24-.76-.37-1.75-.62-2.94-.79-1.13-.23-2.57-.34-4.29-.34v-2.03Z"/>
        <path class="cls-1" d="M210.64,505.09c3.98,0,7.68-.93,11.07-2.82,3.39-1.86,6.1-4.63,8.13-8.25,2.32-3.98,3.5-8.93,3.5-14.8,0-4.58-.76-8.93-2.26-12.99-1.44-4.07-3.45-7.6-5.99-10.62-2.57-3.08-5.62-5.48-9.15-7.23-3.47-1.81-7.17-2.71-11.07-2.71-3.16,0-6.21.62-9.15,1.81-2.88,1.21-5.39,2.94-7.57,5.2-2.12,2.26-3.81,5.03-5.08,8.25-1.21,3.16-1.81,6.75-1.81,10.73,0,4.6.79,8.93,2.37,12.99,1.64,4.01,3.84,7.54,6.55,10.62,2.71,3.02,5.79,5.42,9.26,7.23,3.53,1.75,7.26,2.6,11.18,2.6ZM240.92,475.27c0,4.69-.9,9.04-2.71,13.11-1.75,4.07-4.15,7.63-7.23,10.62-3.11,3.02-6.75,5.39-10.96,7.12-4.15,1.72-8.67,2.6-13.56,2.6s-9.32-.9-13.22-2.71c-3.84-1.81-7.2-4.24-10.06-7.34-2.94-3.16-5.25-6.78-6.89-10.85-1.67-4.07-2.49-8.16-2.49-12.31,0-4.58.9-8.87,2.71-12.88,1.86-4.07,4.35-7.6,7.46-10.62,3.16-2.99,6.81-5.37,10.96-7.12,4.12-1.81,8.5-2.71,13.11-2.71,4.21,0,8.28.85,12.2,2.49,3.9,1.58,7.37,3.84,10.39,6.78,3.08,2.88,5.56,6.33,7.46,10.39,1.86,4.07,2.82,8.56,2.82,13.44Z"/>
        <path class="cls-1" d="M252.98,443.64c.73,0,1.92.06,3.5.11,1.58,0,3.39.06,5.42.11h6.55c2.4,0,4.69-.06,6.89-.23l-.11,1.92c-2.34.17-4.07.45-5.2.9-1.13.45-1.89,1.19-2.26,2.15-.4.99-.65,3.56-.79,7.68-.17,4.15-.31,10.39-.45,18.75l-.23,16.61c0,2.26.03,4.18.11,5.76.06,1.58.17,2.8.34,3.62.14.9.37,1.64.68,2.15.28.45.82.73,1.58.79,1.5.4,4.66.56,9.49.56,2.94,0,5.76-.14,8.47-.45,2.71-.37,5.2-.93,7.46-1.69,1.05-.37,1.98-.73,2.82-1.13.82-.45,1.53-.96,2.15-1.58.59-.59,1.07-1.3,1.47-2.15.45-.9.85-1.95,1.24-3.16l1.58.23c-.31,2.2-.79,4.49-1.47,6.89-.62,2.34-1.36,4.52-2.26,6.55-.85-.08-1.81-.17-2.94-.23-1.13-.08-2.32-.17-3.5-.23-1.21-.08-2.34-.11-3.39-.11h-37.73l-.11-1.47c2.17-.37,3.67-.85,4.52-1.47.82-.68,1.41-1.5,1.81-2.49.28-.9.51-2.49.68-4.75.23-2.32.34-5.71.34-10.17l.11-21.8v-9.38c0-2.54-.17-4.55-.45-5.99-.31-1.5-.85-2.63-1.58-3.39-.68-.82-2.26-1.24-4.75-1.24v-1.69Z"/>
        <path class="cls-1" d="M344.09,443.41c2.54,0,5.11-.03,7.68-.11,2.63-.06,5.25-.17,7.91-.34-.31,3.7-.65,6.55-1.02,8.59-.4,2.03-.88,3.5-1.47,4.41l-1.24-.45c0-.51.03-1.27.11-2.26.14-.96.23-1.61.23-1.92,0-1.72-1.1-3.08-3.28-4.07-2.2-.96-5.93-1.47-11.18-1.47-3.11,0-5.85.08-8.25.23-2.43.17-4.83.42-7.23.79-.31,2.2-.54,4.29-.68,6.33-.08,2.03-.17,4.12-.23,6.21v6.55c.06,2.34.11,4.86.11,7.57,1.05.08,2.06.11,3.05.11h11.64c2.17-.06,3.9-.14,5.2-.23,1.36-.06,2.32-.14,2.94-.23.68-.14,1.16-.25,1.47-.34.73-.23,1.36-.85,1.81-1.92.51-1.05,1.05-2.51,1.58-4.41h1.36v18.75h-1.69c-.08-2.77-.42-4.66-1.02-5.65-.62-1.05-1.41-1.81-2.37-2.26-1.07-.51-2.8-.85-5.2-1.02-2.43-.14-5.62-.23-9.6-.23h-3.28c-.85,0-1.58.06-2.26.11-.68.08-1.33.17-1.92.23-.54.08-1.1.11-1.69.11-.08,3.62-.17,6.67-.23,9.15-.08,2.43-.11,4.58-.11,6.44.06,1.89.14,3.7.23,5.42.14,1.75.4,3.73.79,5.99,1.95.62,3.84,1.02,5.65,1.24,1.86.17,4.29.23,7.23.23,7.51,0,12.82-.82,15.93-2.49,1.58-.9,2.94-2.06,4.07-3.5,1.13-1.41,2.15-3.45,3.05-6.1h1.58c-.4,2.26-.76,4.24-1.13,5.87-.31,1.58-.62,2.88-.9,3.84-.62,2.03-1.33,3.81-2.15,5.31-2.71-.08-5.59-.17-8.59-.23-3.02,0-5.93-.06-8.7-.11-5.73-.08-11.16-.08-16.27,0-5.06.14-10.14.34-15.25.56l.11-1.69c2.49-.45,4.07-.9,4.75-1.36.73-.45,1.24-1.05,1.47-1.81.23-.73.4-1.86.56-3.39.14-1.5.28-3.78.45-6.89.06-1.5.14-3.16.23-4.97.06-1.86.11-3.76.11-5.65.06-1.86.11-3.64.11-5.31v-4.18l-.23-13.11c-.08-6.1-.4-9.94-.9-11.52-.45-1.27-1.1-2.09-1.92-2.49-.85-.37-2.15-.71-3.95-1.02l.11-1.36h32.42Z"/>
        <path class="cls-1" d="M374.87,441.83c.51.62,1.07,1.07,1.69,1.36.68.31,1.61.54,2.82.68,1.27.08,2.97.17,5.08.23h8.36c5.42,0,10.76.06,16.04.11,5.34,0,10.73-.06,16.16-.23h6.55c.73-.06,1.3-.23,1.69-.45.45-.23.85-.56,1.24-1.02.28.31.48.54.56.68.14.17.4.34.79.56-.23.45-.51,1.19-.79,2.15-.31.99-.62,2.03-.9,3.16-.23,1.07-.51,2.09-.79,3.05-.23.9-.34,1.53-.34,1.81l-2.15.23c.14-.9.23-1.64.23-2.26.06-.68.14-1.38.23-2.15-1.21-1.13-3.22-1.84-5.99-2.15-2.8-.37-6.1-.56-9.94-.56-2.2,0-3.84.06-4.97.11-1.13.08-1.86.31-2.15.68-.17.17-.28.42-.34.79,0,.31-.06,1.19-.11,2.6-.17,1.98-.28,4.83-.34,8.59-.08,3.7-.17,7.77-.23,12.2l-.11,18.08v3.95c0,1.3.03,2.57.11,3.84.06,1.21.17,2.32.34,3.28.14.9.37,1.67.68,2.26.45.99,1.16,1.64,2.15,1.92,1.05.31,2.09.54,3.16.68.9.08,1.69.17,2.37.23.68,0,1.07.08,1.24.23.14.17.17.45.11.9,0,.37-.06.56-.11.56-.54.06-1.33.06-2.37,0-.99,0-2.12-.06-3.39-.11-1.21-.08-2.46-.17-3.73-.23-1.21-.08-2.32-.11-3.28-.11-3.7,0-6.84.23-9.38.68-2.49.51-3.95.79-4.41.79-.54,0-.9-.17-1.13-.45-.23-.23-.45-.65-.68-1.24.82-.23,1.72-.45,2.71-.68,1.05-.28,2.03-.56,2.94-.79.96-.23,1.84-.48,2.6-.79.73-.37,1.24-.73,1.47-1.13.23-.28.37-.56.45-.79.06-.23.11-.51.11-.9.06-.45.11-1.02.11-1.69,0-.73.03-1.75.11-3.05.06-1.13.14-2.65.23-4.63.06-2.03.14-4.1.23-6.21.06-2.09.11-4.12.11-6.1v-17.85c0-3.3-.08-6.33-.23-9.04-.17-2.71-.51-4.69-1.02-5.99-.85-.14-1.98-.25-3.39-.34-1.44-.06-3.39-.11-5.87-.11-3.16,0-5.73.11-7.68.34-1.98.17-3.59.51-4.86,1.02-1.21.45-2.15,1.13-2.82,2.03s-1.24,2.09-1.69,3.5l-1.69-.45c.82-2.17,1.58-4.12,2.26-5.87.68-1.81,1.3-3.76,1.92-5.87Z"/>
        <path class="cls-1" d="M446.04,441.83c.51.62,1.07,1.07,1.69,1.36.68.31,1.61.54,2.82.68,1.27.08,2.97.17,5.08.23h8.36c5.42,0,10.76.06,16.04.11,5.34,0,10.73-.06,16.16-.23h6.55c.73-.06,1.3-.23,1.69-.45.45-.23.85-.56,1.24-1.02.28.31.48.54.56.68.14.17.4.34.79.56-.23.45-.51,1.19-.79,2.15-.31.99-.62,2.03-.9,3.16-.23,1.07-.51,2.09-.79,3.05-.23.9-.34,1.53-.34,1.81l-2.15.23c.14-.9.23-1.64.23-2.26.06-.68.14-1.38.23-2.15-1.21-1.13-3.22-1.84-5.99-2.15-2.8-.37-6.1-.56-9.94-.56-2.2,0-3.84.06-4.97.11-1.13.08-1.86.31-2.15.68-.17.17-.28.42-.34.79,0,.31-.06,1.19-.11,2.6-.17,1.98-.28,4.83-.34,8.59-.08,3.7-.17,7.77-.23,12.2l-.11,18.08v3.95c0,1.3.03,2.57.11,3.84.06,1.21.17,2.32.34,3.28.14.9.37,1.67.68,2.26.45.99,1.16,1.64,2.15,1.92,1.05.31,2.09.54,3.16.68.9.08,1.69.17,2.37.23.68,0,1.07.08,1.24.23.14.17.17.45.11.9,0,.37-.06.56-.11.56-.54.06-1.33.06-2.37,0-.99,0-2.12-.06-3.39-.11-1.21-.08-2.46-.17-3.73-.23-1.21-.08-2.32-.11-3.28-.11-3.7,0-6.84.23-9.38.68-2.49.51-3.95.79-4.41.79-.54,0-.9-.17-1.13-.45-.23-.23-.45-.65-.68-1.24.82-.23,1.72-.45,2.71-.68,1.05-.28,2.03-.56,2.94-.79.96-.23,1.84-.48,2.6-.79.73-.37,1.24-.73,1.47-1.13.23-.28.37-.56.45-.79.06-.23.11-.51.11-.9.06-.45.11-1.02.11-1.69,0-.73.03-1.75.11-3.05.06-1.13.14-2.65.23-4.63.06-2.03.14-4.1.23-6.21.06-2.09.11-4.12.11-6.1v-17.85c0-3.3-.08-6.33-.23-9.04-.17-2.71-.51-4.69-1.02-5.99-.85-.14-1.98-.25-3.39-.34-1.44-.06-3.39-.11-5.87-.11-3.16,0-5.73.11-7.68.34-1.98.17-3.59.51-4.86,1.02-1.21.45-2.15,1.13-2.82,2.03s-1.24,2.09-1.69,3.5l-1.69-.45c.82-2.17,1.58-4.12,2.26-5.87.68-1.81,1.3-3.76,1.92-5.87Z"/>
        <path class="cls-1" d="M531.8,481.26c3.16.54,6.55.76,10.17.68,3.67-.14,7.17-.25,10.51-.34-.45-1.41-1.07-3.11-1.81-5.08-.76-2.03-1.58-4.21-2.49-6.55-.9-2.32-1.89-4.69-2.94-7.12-1.07-2.4-2.15-4.8-3.28-7.23-1.98,4.6-3.7,8.87-5.2,12.77l-4.97,12.88ZM545.58,442.39c.14.9.37,1.89.68,2.94.37,1.07.71,2.09,1.02,3.05.37.99.71,1.89,1.02,2.71.28.85.48,1.47.56,1.92l10.51,27.91c2.63,7.23,4.75,12.65,6.33,16.27,1.64,3.56,2.77,5.65,3.39,6.33.51.68,1.07,1.19,1.69,1.47.68.31,1.84.56,3.5.79v1.69c-1.67-.06-3.14-.14-4.41-.23-1.21-.06-2.54-.11-3.95-.11s-2.91.06-4.63.11c-1.75.08-3.93.23-6.55.45v-1.69c1.05-.14,2.15-.45,3.28-.9s1.69-1.24,1.69-2.37c0-.68-.23-1.72-.68-3.16-.45-1.41-.99-2.97-1.58-4.63-.62-1.64-1.24-3.39-1.92-5.2s-1.24-3.42-1.69-4.86c-.4-.06-1.64-.14-3.73-.23-2.03-.06-4.35-.11-6.89-.11s-5.08.06-7.57.11c-2.49,0-4.35.17-5.54.45-1.13,3.11-2.12,5.59-2.94,7.46-.76,1.81-1.41,3.28-1.92,4.41-.45,1.13-.79,2.03-1.02,2.71-.17.62-.23,1.21-.23,1.81,0,1.53.59,2.57,1.81,3.16,1.27.62,3.3,1.13,6.1,1.58v1.69c-1.13-.23-2.49-.42-4.07-.56-1.58-.14-3.25-.23-4.97-.23s-3.47.06-5.2.11c-1.75.08-3.28.2-4.63.34v-1.47c1.36-.28,2.51-.79,3.5-1.47.96-.73,1.81-1.64,2.49-2.71.59-.9,1.24-2.03,1.92-3.39.68-1.41,1.36-2.85,2.03-4.29.68-1.41,1.27-2.77,1.81-4.07.51-1.36.96-2.4,1.36-3.16l12.65-30.5c1.13-2.63,2.09-5.08,2.94-7.34.82-2.26,1.53-4.52,2.15-6.78h1.69Z"/>
        <path class="cls-1" d="M609.69,443.3c3.67.17,7.37.31,11.07.45,3.67.08,7.37-.17,11.07-.79v1.69c-4.24.54-6.61,1.55-7.12,3.05-.31.85-.56,2.37-.79,4.63-.17,2.26-.28,4.83-.34,7.68-.08,2.8-.17,5.62-.23,8.47v7.23c.37-.28,1.41-1.3,3.16-3.05,1.81-1.72,4.35-4.21,7.68-7.46,3.45-3.3,6.16-5.99,8.13-8.02,2.03-2.03,3.53-3.62,4.52-4.75,1.05-1.19,1.72-2.09,2.03-2.71.28-.59.45-1.19.45-1.81,0-1.58-1.64-2.43-4.86-2.6l-.11-1.81,10.39.11c1.36,0,2.74-.03,4.18-.11,1.41-.14,2.85-.28,4.29-.45l.11,1.92c-1.21.17-2.43.54-3.62,1.13-1.13.54-2.37,1.33-3.73,2.37-1.36.99-2.88,2.2-4.52,3.62-1.58,1.44-3.45,3.14-5.54,5.08-8.3,7.63-13.98,13.05-17.06,16.27l17.29,14.46c.45.31,1.19.9,2.26,1.81,1.05.9,2.26,2.01,3.62,3.28,1.41,1.21,2.97,2.54,4.63,3.95,1.72,1.36,3.42,2.68,5.08,3.95,1.72,1.3,3.28,2.46,4.63,3.5,1.41.99,2.63,1.67,3.62,2.03v1.58c-1.3-.17-2.49-.31-3.62-.45-1.13-.08-2.49-.11-4.07-.11-2.03,0-4.04.06-5.99.23-1.89.14-3.5.25-4.86.34l-.11-1.36c.96-.28,1.92-.51,2.82-.68.9-.14,1.36-.48,1.36-1.02,0-.9-4.6-5.03-13.78-12.43-4.69-3.84-8.53-6.92-11.52-9.26-3.02-2.4-5.28-4.07-6.78-4.97v6.89c0,4.97.03,8.9.11,11.75.14,2.88.34,4.8.56,5.76.23.9,1.02,1.75,2.37,2.49,1.36.68,3.11,1.21,5.31,1.58v1.47c-.31-.08-.9-.17-1.81-.23-.85-.08-1.78-.17-2.82-.23-1.07,0-2.09-.06-3.05-.11h-11.41c-1.13.06-2.26.14-3.39.23v-1.81c1.05-.06,1.98-.17,2.82-.34.9-.23,1.69-.71,2.37-1.47.37-.37.68-1.19.9-2.49.28-1.27.56-3.3.79-6.1.14-2.4.25-5.42.34-9.04.14-3.62.23-7.57.23-11.86,0-3.39-.06-6.33-.11-8.81,0-2.54-.06-4.46-.11-5.76-.08-2.85-.11-5.23-.11-7.12s-.2-3.33-.56-4.41c-.31-1.13-.96-1.95-1.92-2.49-.9-.59-2.32-1.02-4.18-1.24l-.11-1.69Z"/>
        <path class="cls-1" d="M714.9,505.09c3.98,0,7.68-.93,11.07-2.82,3.39-1.86,6.1-4.63,8.13-8.25,2.32-3.98,3.5-8.93,3.5-14.8,0-4.58-.76-8.93-2.26-12.99-1.44-4.07-3.45-7.6-5.99-10.62-2.57-3.08-5.62-5.48-9.15-7.23-3.47-1.81-7.17-2.71-11.07-2.71-3.16,0-6.21.62-9.15,1.81-2.88,1.21-5.39,2.94-7.57,5.2-2.12,2.26-3.81,5.03-5.08,8.25-1.21,3.16-1.81,6.75-1.81,10.73,0,4.6.79,8.93,2.37,12.99,1.64,4.01,3.84,7.54,6.55,10.62,2.71,3.02,5.79,5.42,9.26,7.23,3.53,1.75,7.26,2.6,11.18,2.6ZM745.18,475.27c0,4.69-.9,9.04-2.71,13.11-1.75,4.07-4.15,7.63-7.23,10.62-3.11,3.02-6.75,5.39-10.96,7.12-4.15,1.72-8.67,2.6-13.56,2.6s-9.32-.9-13.22-2.71c-3.84-1.81-7.2-4.24-10.06-7.34-2.94-3.16-5.25-6.78-6.89-10.85-1.67-4.07-2.49-8.16-2.49-12.31,0-4.58.9-8.87,2.71-12.88,1.86-4.07,4.35-7.6,7.46-10.62,3.16-2.99,6.81-5.37,10.96-7.12,4.12-1.81,8.5-2.71,13.11-2.71,4.21,0,8.28.85,12.2,2.49,3.9,1.58,7.37,3.84,10.39,6.78,3.08,2.88,5.56,6.33,7.46,10.39,1.86,4.07,2.82,8.56,2.82,13.44ZM720.77,420.81l-14.35,17.62h-2.26l9.72-17.62h6.89Z"/>
        <path class="cls-1" d="M791.58,444.43c.45,0,.85-.06,1.24-.23.45-.14,1.13-.48,2.03-1.02l1.02.23c-.17,1.36-.31,2.57-.45,3.62-.17,1.07-.23,2.12-.23,3.16s.03,2.2.11,3.39c.14,1.13.25,2.54.34,4.18l-1.47.11c-.08-1.86-.56-3.62-1.47-5.2-.85-1.64-2.01-3.05-3.5-4.18-1.53-1.13-3.28-1.98-5.31-2.6-2.03-.59-4.26-.9-6.67-.9-4.52,0-7.91,1.19-10.17,3.5-2.26,2.34-3.39,5.31-3.39,8.93,0,1.58.25,3.14.79,4.63.59,1.44,1.58,2.77,2.94,3.95,1.27,1.13,3.05,2.23,5.31,3.28,2.26.99,4.91,2.03,8.02,3.16,5.87,2.2,10.2,4.8,12.99,7.8,2.85,2.94,4.29,6.67,4.29,11.18,0,2.49-.54,4.8-1.58,6.89-.99,2.03-2.43,3.81-4.29,5.31-1.89,1.53-4.15,2.68-6.78,3.5-2.65.73-5.65,1.13-9.04,1.13-2.2,0-4.26-.11-6.21-.34-1.89-.23-3.56-.48-4.97-.79-1.44-.28-2.65-.56-3.62-.79-.9-.23-1.47-.34-1.69-.34-.45,0-.79.11-1.02.34-.17.17-.17.62,0,1.36l-2.03-.11v-.68c0-2.77-.31-5.65-.9-8.59-.62-2.94-1.24-5.37-1.92-7.34.28-.14.56-.23.79-.23.28,0,.59-.03.9-.11.59,2.12,1.16,3.9,1.69,5.31.59,1.36,1.27,2.43,2.03,3.16.68.76,1.72,1.53,3.16,2.26,1.41.76,2.99,1.44,4.75,2.03,1.81.62,3.67,1.13,5.65,1.58,1.95.4,3.78.56,5.54.56,4.29,0,7.51-.93,9.72-2.82,2.17-1.95,3.28-4.77,3.28-8.47,0-1.81-.28-3.42-.79-4.86-.45-1.5-1.3-2.85-2.49-4.07-1.13-1.19-2.68-2.32-4.63-3.39-1.98-1.13-4.41-2.26-7.34-3.39-3.11-1.13-5.85-2.26-8.25-3.39-2.43-1.13-4.38-2.43-5.87-3.95-3.11-2.85-4.63-6.47-4.63-10.85,0-2.49.45-4.8,1.36-7,.96-2.17,2.37-4.01,4.18-5.54,1.86-1.5,4.1-2.65,6.67-3.5,2.63-.9,5.65-1.36,9.04-1.36s6.13.28,8.47.79c2.32.45,3.78.68,4.41.68Z"/>
        <path class="cls-1" d="M806.25,443.3c3.67.17,7.37.31,11.07.45,3.67.08,7.37-.17,11.07-.79v1.69c-4.24.54-6.61,1.55-7.12,3.05-.31.85-.56,2.37-.79,4.63-.17,2.26-.28,4.83-.34,7.68-.08,2.8-.17,5.62-.23,8.47v7.23c.37-.28,1.41-1.3,3.16-3.05,1.81-1.72,4.35-4.21,7.68-7.46,3.45-3.3,6.16-5.99,8.13-8.02,2.03-2.03,3.53-3.62,4.52-4.75,1.05-1.19,1.72-2.09,2.03-2.71.28-.59.45-1.19.45-1.81,0-1.58-1.64-2.43-4.86-2.6l-.11-1.81,10.39.11c1.36,0,2.74-.03,4.18-.11,1.41-.14,2.85-.28,4.29-.45l.11,1.92c-1.21.17-2.43.54-3.62,1.13-1.13.54-2.37,1.33-3.73,2.37-1.36.99-2.88,2.2-4.52,3.62-1.58,1.44-3.45,3.14-5.54,5.08-8.3,7.63-13.98,13.05-17.06,16.27l17.29,14.46c.45.31,1.19.9,2.26,1.81,1.05.9,2.26,2.01,3.62,3.28,1.41,1.21,2.97,2.54,4.63,3.95,1.72,1.36,3.42,2.68,5.08,3.95,1.72,1.3,3.28,2.46,4.63,3.5,1.41.99,2.63,1.67,3.62,2.03v1.58c-1.3-.17-2.49-.31-3.62-.45-1.13-.08-2.49-.11-4.07-.11-2.03,0-4.04.06-5.99.23-1.89.14-3.5.25-4.86.34l-.11-1.36c.96-.28,1.92-.51,2.82-.68.9-.14,1.36-.48,1.36-1.02,0-.9-4.6-5.03-13.78-12.43-4.69-3.84-8.53-6.92-11.52-9.26-3.02-2.4-5.28-4.07-6.78-4.97v6.89c0,4.97.03,8.9.11,11.75.14,2.88.34,4.8.56,5.76.23.9,1.02,1.75,2.37,2.49,1.36.68,3.11,1.21,5.31,1.58v1.47c-.31-.08-.9-.17-1.81-.23-.85-.08-1.78-.17-2.82-.23-1.07,0-2.09-.06-3.05-.11h-11.41c-1.13.06-2.26.14-3.39.23v-1.81c1.05-.06,1.98-.17,2.82-.34.9-.23,1.69-.71,2.37-1.47.37-.37.68-1.19.9-2.49.28-1.27.56-3.3.79-6.1.14-2.4.25-5.42.34-9.04.14-3.62.23-7.57.23-11.86,0-3.39-.06-6.33-.11-8.81,0-2.54-.06-4.46-.11-5.76-.08-2.85-.11-5.23-.11-7.12s-.2-3.33-.56-4.41c-.31-1.13-.96-1.95-1.92-2.49-.9-.59-2.32-1.02-4.18-1.24l-.11-1.69Z"/>
        <path class="cls-1" d="M890.44,481.26c3.16.54,6.55.76,10.17.68,3.67-.14,7.17-.25,10.51-.34-.45-1.41-1.07-3.11-1.81-5.08-.76-2.03-1.58-4.21-2.49-6.55-.9-2.32-1.89-4.69-2.94-7.12-1.07-2.4-2.15-4.8-3.28-7.23-1.98,4.6-3.7,8.87-5.2,12.77l-4.97,12.88ZM904.22,442.39c.14.9.37,1.89.68,2.94.37,1.07.71,2.09,1.02,3.05.37.99.71,1.89,1.02,2.71.28.85.48,1.47.56,1.92l10.51,27.91c2.63,7.23,4.75,12.65,6.33,16.27,1.64,3.56,2.77,5.65,3.39,6.33.51.68,1.07,1.19,1.69,1.47.68.31,1.84.56,3.5.79v1.69c-1.67-.06-3.14-.14-4.41-.23-1.21-.06-2.54-.11-3.95-.11s-2.91.06-4.63.11c-1.75.08-3.93.23-6.55.45v-1.69c1.05-.14,2.15-.45,3.28-.9,1.13-.45,1.69-1.24,1.69-2.37,0-.68-.23-1.72-.68-3.16-.45-1.41-.99-2.97-1.58-4.63-.62-1.64-1.24-3.39-1.92-5.2-.68-1.81-1.24-3.42-1.69-4.86-.4-.06-1.64-.14-3.73-.23-2.03-.06-4.35-.11-6.89-.11s-5.08.06-7.57.11c-2.49,0-4.35.17-5.54.45-1.13,3.11-2.12,5.59-2.94,7.46-.76,1.81-1.41,3.28-1.92,4.41-.45,1.13-.79,2.03-1.02,2.71-.17.62-.23,1.21-.23,1.81,0,1.53.59,2.57,1.81,3.16,1.27.62,3.3,1.13,6.1,1.58v1.69c-1.13-.23-2.49-.42-4.07-.56-1.58-.14-3.25-.23-4.97-.23s-3.47.06-5.2.11c-1.75.08-3.28.2-4.63.34v-1.47c1.36-.28,2.51-.79,3.5-1.47.96-.73,1.81-1.64,2.49-2.71.59-.9,1.24-2.03,1.92-3.39.68-1.41,1.36-2.85,2.03-4.29.68-1.41,1.27-2.77,1.81-4.07.51-1.36.96-2.4,1.36-3.16l12.65-30.5c1.13-2.63,2.09-5.08,2.94-7.34.82-2.26,1.53-4.52,2.15-6.78h1.69Z"/>
        <path class="cls-1" d="M208.47,588.33v3.05c.06.68.23,1.21.45,1.58.28.31.71.51,1.24.56h2.49c2.63,0,4.69-.59,6.21-1.81,1.5-1.27,2.26-3.05,2.26-5.31,0-1.19-.23-2.32-.68-3.39-.4-1.05-.99-1.95-1.81-2.71-.85-.82-1.86-1.47-3.05-1.92-1.13-.45-2.46-.68-3.95-.68h-1.47c-.31,0-.62.06-.9.11h-.79v10.51ZM208.47,576.69c.59-.06,1.16-.11,1.69-.11h1.69c1.95-.23,3.45-.82,4.52-1.81,1.05-.96,1.58-2.49,1.58-4.52,0-1.05-.2-1.98-.56-2.82-.31-.9-.76-1.64-1.36-2.26-.62-.59-1.33-1.05-2.15-1.36-.85-.37-1.75-.56-2.71-.56s-1.58.08-1.81.23c-.23.17-.4.34-.45.56-.08.23-.17.65-.23,1.24,0,.62-.06,1.3-.11,2.03-.08.76-.11,1.58-.11,2.49v6.89ZM221.8,569.69c0,1.67-.51,3.14-1.47,4.41-.99,1.21-2.6,2.12-4.86,2.71v.11c3.16.54,5.54,1.64,7.12,3.28,1.64,1.58,2.49,3.56,2.49,5.87,0,2.8-1.07,4.94-3.16,6.44-2.12,1.44-5.17,2.15-9.15,2.15h-1.02c-.54,0-1.19-.06-1.92-.11h-6.44c-.31.06-.65.11-1.02.11-.31.06-.65.11-1.02.11v-.9c.82-.06,1.41-.17,1.81-.34.45-.23.82-.51,1.13-.9.14-.23.25-.82.34-1.81.14-.96.25-2.32.34-4.07v-2.26c.06-.9.11-1.84.11-2.82v-2.71c.06-.82.11-1.5.11-2.03v-4.75c0-1.13-.06-2.2-.11-3.28-.08-1.05-.17-1.86-.23-2.49-.17-.59-.31-1.07-.45-1.47-.17-.45-.4-.79-.68-1.02-.23-.23-.54-.37-.9-.45-.4-.06-.88-.17-1.47-.34v-.9c.73.08,1.53.17,2.37.23h3.73c.68-.06,1.36-.14,2.03-.23.73-.06,1.41-.11,2.03-.11.68-.06,1.16-.11,1.47-.11,1.27,0,2.43.2,3.5.56,1.05.4,1.95.9,2.71,1.58.82.68,1.47,1.53,1.92,2.49.45.9.68,1.92.68,3.05Z"/>
        <path class="cls-1" d="M228.91,562.23c.73,0,1.75.06,3.05.11,1.36.08,2.65.11,3.95.11h1.81c.68,0,1.24-.03,1.69-.11h1.47c.45,0,1.07-.03,1.92-.11v1.13c-1.07,0-1.92.06-2.6.11-.62.08-1.1.34-1.47.79-.17.23-.31.65-.45,1.24-.08.62-.17,1.36-.23,2.26-.08.9-.17,1.98-.23,3.16-.08,1.21-.11,2.49-.11,3.84l.11,12.09v3.28c.06.99.17,1.69.34,2.15.23.54.68.9,1.36,1.13.73.17,1.75.23,3.05.23l-.11,1.02c-1.3-.08-2.49-.11-3.62-.11h-8.02c-.62,0-1.33.03-2.15.11l-.11-.9c2.63-.14,4.21-.71,4.75-1.69.37-.51.62-1.75.79-3.73.14-2.03.23-4.43.23-7.23v-6.89c0-1.36-.06-2.63-.11-3.84-.08-1.19-.17-2.26-.23-3.16,0-.96-.06-1.61-.11-1.92-.17-.28-.34-.56-.56-.79-.17-.28-.42-.51-.79-.68-.4-.23-.88-.37-1.47-.45-.54-.06-1.24-.11-2.15-.11v-1.02Z"/>
        <path class="cls-1" d="M258.92,563.13c-1.3.23-2.32.45-3.05.68-.68.23-1.13.68-1.36,1.36-.08.4-.17.9-.23,1.58-.08.68-.17,1.44-.23,2.26-.08.76-.17,1.55-.23,2.37v7.46c0,1.75.06,3.5.23,5.31,0,.9.06,1.75.23,2.49.14.68.34,1.33.56,1.92.23.54.51,1.02.9,1.47.45.45.93.9,1.47,1.36.9.68,1.98,1.21,3.28,1.58,1.36.31,2.6.45,3.73.45,1.19,0,2.4-.11,3.62-.34,1.19-.28,2.37-.71,3.5-1.24,1.13-.51,2.03-1.19,2.71-2.03.68-.82,1.16-2.03,1.47-3.62.28-1.64.48-3.62.56-5.87.14-2.32.23-4.91.23-7.8,0-1.95-.06-3.53-.11-4.75-.08-.9-.23-1.64-.45-2.26-.17-.68-.42-1.16-.79-1.47-.31-.28-.68-.45-1.13-.45-.45-.06-1.1-.11-1.92-.11l-.11-.9c.28-.06.73-.11,1.36-.11h8.36v1.02c-.68,0-1.24.06-1.69.11-.45.08-.79.28-1.02.56-.23.31-.4.73-.45,1.24-.08.45-.11,1.13-.11,2.03,0,2.65-.06,5.25-.11,7.8-.08,2.57-.23,4.91-.45,7-.08.99-.2,2.03-.34,3.16-.17,1.07-.4,1.92-.68,2.6-.4,1.3-.88,2.26-1.47,2.94-.54.68-1.24,1.33-2.15,1.92-1.36.76-2.94,1.33-4.75,1.69-1.75.37-3.5.56-5.31.56-3.84,0-6.95-.9-9.26-2.71-2.26-1.81-3.39-4.41-3.39-7.8l.11-11.07c0-3.39-.11-5.79-.34-7.23-.17-1.5-.42-2.32-.79-2.49-.4-.14-.79-.23-1.24-.23-.4-.06-.85-.11-1.36-.11v-1.02c1.05.08,2.06.11,3.05.11h6.21c.96-.06,1.86-.14,2.71-.23l.23.79Z"/>
        <path class="cls-1" d="M292.09,577.48c.73.17,1.38.28,1.92.34.59.08,1.27.11,2.03.11,2.99,0,5.23-.56,6.67-1.69,1.41-1.19,2.15-2.88,2.15-5.08,0-.96-.23-1.98-.68-3.05-.45-1.13-1.07-2.06-1.81-2.82-.68-.68-1.53-1.19-2.49-1.58-.9-.45-1.98-.68-3.16-.68-.9,0-1.78.11-2.6.34-.85.17-1.33.4-1.47.68-.08.23-.17.65-.23,1.24-.08.54-.17,1.13-.23,1.81,0,.62-.06,1.24-.11,1.92v8.47ZM308.58,570.48c0,1.58-.56,3.16-1.69,4.75-1.07,1.53-2.8,2.68-5.2,3.5,2.17,3.47,4.01,6.21,5.54,8.25,1.5,1.98,2.77,3.47,3.84,4.52,1.05,1.07,1.92,1.81,2.6,2.26.73.45,1.41.79,2.03,1.02.51.23.9.28,1.13.23.28,0,.56.06.79.23.14.06.23.23.23.45,0,.06-.08.14-.23.23-.08.14-.45.23-1.13.23-1.36,0-2.68-.28-3.95-.79-1.21-.45-2.37-1.07-3.5-1.92-1.07-.82-2.12-1.75-3.16-2.82-1.07-1.13-2.03-2.29-2.94-3.5-.9-1.19-1.86-2.49-2.82-3.84-.9-1.36-1.81-2.65-2.71-3.95h-1.92c-.45-.06-.9-.11-1.36-.11h-1.13c-.31-.06-.68-.14-1.13-.23v8.93c.06.99.14,1.92.23,2.82.06.99.23,1.67.45,2.03.23.31.48.54.79.68.73.31,1.36.54,1.81.68.51.08.79.17.79.23,0,.45-.17.68-.45.68-.08,0-.34-.06-.79-.11-.4,0-.85-.06-1.36-.11-.45-.08-.96-.17-1.47-.23h-1.24c-1.3,0-2.43.03-3.39.11-.99.14-1.58.23-1.81.23-.4,0-.56-.11-.56-.34,0-.28.11-.45.34-.45.23-.06.48-.14.79-.23.28-.14.59-.28.9-.45.37-.14.68-.45.9-.9.14-.37.28-1.13.45-2.26.14-1.19.23-2.82.23-4.86v-12.65c0-2.32-.06-4.1-.11-5.31,0-1.19-.17-2.15-.45-2.82-.17-.28-.45-.56-.9-.79-.4-.23-1.07-.37-2.03-.45l.11-.9,3.16.11c.37,0,1.02-.03,1.92-.11.9-.06,1.84-.14,2.82-.23.96-.06,1.86-.14,2.71-.23.9-.06,1.53-.11,1.92-.11,1.64,0,3.16.28,4.52.79,1.36.45,2.51,1.1,3.5,1.92.96.76,1.69,1.67,2.15,2.71.51.99.79,2.03.79,3.16Z"/>
        <path class="cls-1" d="M340.55,593.41c1.95,0,3.78-.48,5.54-1.47,1.72-.96,3.08-2.37,4.07-4.18,1.19-2.03,1.81-4.52,1.81-7.46,0-2.32-.4-4.52-1.13-6.55-.76-2.03-1.78-3.78-3.05-5.31-1.3-1.58-2.82-2.77-4.63-3.62-1.75-.9-3.59-1.36-5.54-1.36-1.58,0-3.14.31-4.63.9-1.44.62-2.71,1.47-3.84,2.6-1.07,1.13-1.89,2.54-2.49,4.18-.62,1.58-.9,3.39-.9,5.42,0,2.26.37,4.41,1.13,6.44.82,2.03,1.92,3.84,3.28,5.42,1.41,1.53,2.99,2.71,4.75,3.62,1.81.9,3.67,1.36,5.65,1.36ZM355.8,578.27c0,2.43-.45,4.63-1.36,6.67s-2.15,3.81-3.73,5.31c-1.53,1.53-3.33,2.71-5.42,3.62-2.12.82-4.41,1.24-6.89,1.24s-4.72-.45-6.67-1.36c-1.89-.9-3.59-2.09-5.08-3.62-1.44-1.58-2.57-3.39-3.39-5.42-.85-2.09-1.24-4.21-1.24-6.33,0-2.26.45-4.41,1.36-6.44.9-2.03,2.15-3.78,3.73-5.31,1.58-1.5,3.39-2.71,5.42-3.62,2.09-.9,4.32-1.36,6.67-1.36,2.09,0,4.12.42,6.1,1.24,2.03.85,3.78,1.98,5.31,3.39,1.58,1.44,2.82,3.22,3.73,5.31.96,2.03,1.47,4.26,1.47,6.67Z"/>
        <path class="cls-1" d="M395.98,577.48c.73.17,1.38.28,1.92.34.59.08,1.27.11,2.03.11,2.99,0,5.23-.56,6.67-1.69,1.41-1.19,2.15-2.88,2.15-5.08,0-.96-.23-1.98-.68-3.05-.45-1.13-1.07-2.06-1.81-2.82-.68-.68-1.53-1.19-2.49-1.58-.9-.45-1.98-.68-3.16-.68-.9,0-1.78.11-2.6.34-.85.17-1.33.4-1.47.68-.08.23-.17.65-.23,1.24-.08.54-.17,1.13-.23,1.81,0,.62-.06,1.24-.11,1.92v8.47ZM412.48,570.48c0,1.58-.56,3.16-1.69,4.75-1.07,1.53-2.8,2.68-5.2,3.5,2.17,3.47,4.01,6.21,5.54,8.25,1.5,1.98,2.77,3.47,3.84,4.52,1.05,1.07,1.92,1.81,2.6,2.26.73.45,1.41.79,2.03,1.02.51.23.9.28,1.13.23.28,0,.56.06.79.23.14.06.23.23.23.45,0,.06-.08.14-.23.23-.08.14-.45.23-1.13.23-1.36,0-2.68-.28-3.95-.79-1.21-.45-2.37-1.07-3.5-1.92-1.07-.82-2.12-1.75-3.16-2.82-1.07-1.13-2.03-2.29-2.94-3.5-.9-1.19-1.86-2.49-2.82-3.84-.9-1.36-1.81-2.65-2.71-3.95h-1.92c-.45-.06-.9-.11-1.36-.11h-1.13c-.31-.06-.68-.14-1.13-.23v8.93c.06.99.14,1.92.23,2.82.06.99.23,1.67.45,2.03.23.31.48.54.79.68.73.31,1.36.54,1.81.68.51.08.79.17.79.23,0,.45-.17.68-.45.68-.08,0-.34-.06-.79-.11-.4,0-.85-.06-1.36-.11-.45-.08-.96-.17-1.47-.23h-1.24c-1.3,0-2.43.03-3.39.11-.99.14-1.58.23-1.81.23-.4,0-.56-.11-.56-.34,0-.28.11-.45.34-.45.23-.06.48-.14.79-.23.28-.14.59-.28.9-.45.37-.14.68-.45.9-.9.14-.37.28-1.13.45-2.26.14-1.19.23-2.82.23-4.86v-12.65c0-2.32-.06-4.1-.11-5.31,0-1.19-.17-2.15-.45-2.82-.17-.28-.45-.56-.9-.79-.4-.23-1.07-.37-2.03-.45l.11-.9,3.16.11c.37,0,1.02-.03,1.92-.11.9-.06,1.84-.14,2.82-.23.96-.06,1.86-.14,2.71-.23.9-.06,1.53-.11,1.92-.11,1.64,0,3.16.28,4.52.79,1.36.45,2.51,1.1,3.5,1.92.96.76,1.69,1.67,2.15,2.71.51.99.79,2.03.79,3.16Z"/>
        <path class="cls-1" d="M433.83,581.32c1.58.31,3.28.42,5.08.34,1.86-.06,3.64-.14,5.31-.23-.23-.68-.54-1.5-.9-2.49-.4-1.05-.79-2.15-1.24-3.28-.45-1.19-.96-2.4-1.47-3.62-.54-1.19-1.07-2.4-1.58-3.62-1.07,2.34-1.98,4.49-2.71,6.44l-2.49,6.44ZM440.72,561.78c.14.45.28.96.45,1.47.14.54.28,1.07.45,1.58.14.45.28.9.45,1.36.14.4.25.68.34.9l5.31,14.12c1.36,3.62,2.4,6.33,3.16,8.13.82,1.81,1.38,2.88,1.69,3.16.28.4.59.65.9.79.28.17.9.28,1.81.34v.9h-2.26c-.62-.06-1.3-.11-2.03-.11-.68,0-1.47.06-2.37.11-.85,0-1.92.03-3.28.11v-.79c.51-.14,1.05-.34,1.58-.56.59-.23.9-.59.9-1.13,0-.37-.11-.9-.34-1.58-.23-.73-.51-1.53-.79-2.37-.31-.82-.65-1.69-1.02-2.6-.31-.9-.56-1.72-.79-2.49h-1.81c-1.07-.06-2.23-.11-3.5-.11s-2.57.06-3.84.11c-1.21,0-2.12.06-2.71.11-.62,1.58-1.13,2.88-1.58,3.84-.4.9-.68,1.67-.9,2.26-.23.54-.42.96-.56,1.24-.08.31-.11.62-.11.9,0,.76.28,1.3.9,1.58.68.31,1.72.62,3.16.9v.79c-.62-.17-1.33-.23-2.15-.23-.76-.06-1.58-.11-2.49-.11-.85,0-1.69.06-2.6.11h-2.37v-.68c.68-.14,1.27-.4,1.81-.79.51-.37.93-.79,1.24-1.24.28-.51.59-1.13.9-1.81.37-.68.71-1.36,1.02-2.03.37-.73.71-1.47,1.02-2.15.28-.68.51-1.19.68-1.58l6.33-15.36c.59-1.36,1.07-2.6,1.47-3.73.45-1.13.82-2.26,1.13-3.39h.79Z"/>
        <path class="cls-1" d="M487.71,563.25c.06,0,.11.06.11.11.06,0,.11.06.11.11-.31.99-.56,1.98-.79,2.94-.23.99-.4,2.03-.45,3.16-.31,0-.54-.06-.68-.23-.08-.14-.11-.45-.11-.9,0-.06-.06-.25-.11-.56v-.79c-.08-.51-.45-1.02-1.13-1.47-.62-.51-1.36-.96-2.26-1.36-.9-.37-1.89-.68-2.94-.9-.99-.23-1.92-.34-2.82-.34-1.89,0-3.62.4-5.2,1.13-1.53.68-2.82,1.67-3.95,2.94-1.13,1.3-2.03,2.88-2.71,4.75-.62,1.89-.9,4.01-.9,6.33,0,2.03.25,3.9.79,5.54.51,1.58,1.24,3.02,2.15,4.29.73.99,1.58,1.86,2.49,2.6.9.68,1.84,1.3,2.82,1.81.96.45,1.95.79,2.94,1.02.96.23,1.84.34,2.6.34,1.72,0,3.22-.25,4.52-.79.96-.45,1.75-1.02,2.37-1.69.59-.68,1.05-1.3,1.36-1.92.37-.59.68-1.13.9-1.58s.45-.68.68-.68c.14,0,.25.06.34.11.06.08.11.2.11.34,0,.17-.06.42-.11.79-.08.4-.2.85-.34,1.36l-1.02,3.5c-1.21.4-2.65.76-4.29,1.13-1.58.37-3.36.56-5.31.56-2.88,0-5.59-.59-8.13-1.81-2.49-1.19-4.52-2.94-6.1-5.2-.99-1.36-1.75-2.82-2.26-4.41-.54-1.58-.79-3.33-.79-5.31,0-2.63.48-4.97,1.47-7,.96-2.03,2.29-3.73,3.95-5.08,1.64-1.41,3.56-2.49,5.76-3.16,2.26-.73,4.58-1.16,7-1.24,1.19,0,2.26.11,3.16.34.96.17,1.81.34,2.49.56.73.23,1.38.45,1.92.68.51.17.96.2,1.36.11l1.02-.11Z"/>
        <path class="cls-1" d="M518.32,562.12c.37.08.71.17,1.02.23.37,0,.73.06,1.13.11h2.6c1.27,0,2.37-.03,3.28-.11.96-.06,1.86-.11,2.71-.11l.11.68c-1.21.23-2.03.65-2.49,1.24-.4.62-.62,1.47-.68,2.6-.08.76-.11,1.58-.11,2.49v3.28c0,1.3-.06,2.6-.11,3.95,0,1.36-.06,2.71-.11,4.07v8.02c0,1.21.03,2.15.11,2.82.14.68.34,1.21.56,1.58.28.4.68.65,1.13.79.45.17,1.02.28,1.69.34v.68c-.85-.17-1.69-.23-2.6-.23h-4.52c-.76.06-1.98.14-3.62.23l-.11-.9c.73-.06,1.36-.17,1.81-.34.45-.14.79-.37,1.02-.68.28-.37.48-.82.56-1.36.14-.51.23-1.16.23-1.92.06-1.72.11-3.45.11-5.2.06-1.72.11-3.45.11-5.2-2.26-.06-4.86-.11-7.8-.11-2.88-.06-5.76-.11-8.7-.11h-5.99c-.08,1.44-.17,2.94-.23,4.52v4.52c0,1.36.03,2.43.11,3.16.06.68.23,1.21.45,1.58.28.4.71.65,1.24.79.51.17,1.27.34,2.26.56l-.11.79-4.07-.23c-.45-.08-.96-.11-1.47-.11h-3.84c-.54.06-1.13.14-1.81.23l-.34-.9c.73-.06,1.36-.17,1.81-.34.51-.14.93-.34,1.24-.56.59-.37.93-4.89,1.02-13.56l.11-9.49c0-1.36-.06-2.43-.11-3.28-.08-.9-.28-1.58-.56-2.03-.23-.51-.56-.9-1.02-1.13s-1.1-.34-1.92-.34l.11-.79,2.49-.11c.59,0,1.3.06,2.15.11.82.08,1.53.11,2.15.11l4.63-.11v.9c-.45.08-.99.17-1.58.23-.62.08-1.1.2-1.47.34-.23.17-.42.42-.56.79-.08.31-.2.85-.34,1.58-.17.85-.28,1.98-.34,3.39-.08,1.36-.11,2.91-.11,4.63l.11,3.05h20.79c.37-.06.71-.11,1.02-.11.37,0,.59-.03.68-.11v-9.6c0-.9-.06-1.5-.11-1.81-.08-.28-.17-.56-.23-.79-.08-.28-.23-.56-.45-.79s-.62-.4-1.13-.56c-.45-.23-1.13-.4-2.03-.56l.11-.79Z"/>
        <path class="cls-1" d="M545.56,563.13c-1.3.23-2.32.45-3.05.68-.68.23-1.13.68-1.36,1.36-.08.4-.17.9-.23,1.58-.08.68-.17,1.44-.23,2.26-.08.76-.17,1.55-.23,2.37v7.46c0,1.75.06,3.5.23,5.31,0,.9.06,1.75.23,2.49.14.68.34,1.33.56,1.92.23.54.51,1.02.9,1.47.45.45.93.9,1.47,1.36.9.68,1.98,1.21,3.28,1.58,1.36.31,2.6.45,3.73.45,1.19,0,2.4-.11,3.62-.34,1.19-.28,2.37-.71,3.5-1.24,1.13-.51,2.03-1.19,2.71-2.03.68-.82,1.16-2.03,1.47-3.62.28-1.64.48-3.62.56-5.87.14-2.32.23-4.91.23-7.8,0-1.95-.06-3.53-.11-4.75-.08-.9-.23-1.64-.45-2.26-.17-.68-.42-1.16-.79-1.47-.31-.28-.68-.45-1.13-.45-.45-.06-1.1-.11-1.92-.11l-.11-.9c.28-.06.73-.11,1.36-.11h8.36v1.02c-.68,0-1.24.06-1.69.11-.45.08-.79.28-1.02.56-.23.31-.4.73-.45,1.24-.08.45-.11,1.13-.11,2.03,0,2.65-.06,5.25-.11,7.8-.08,2.57-.23,4.91-.45,7-.08.99-.2,2.03-.34,3.16-.17,1.07-.4,1.92-.68,2.6-.4,1.3-.88,2.26-1.47,2.94-.54.68-1.24,1.33-2.15,1.92-1.36.76-2.94,1.33-4.75,1.69-1.75.37-3.5.56-5.31.56-3.84,0-6.95-.9-9.26-2.71-2.26-1.81-3.39-4.41-3.39-7.8l.11-11.07c0-3.39-.11-5.79-.34-7.23-.17-1.5-.42-2.32-.79-2.49-.4-.14-.79-.23-1.24-.23-.4-.06-.85-.11-1.36-.11v-1.02c1.05.08,2.06.11,3.05.11h6.21c.96-.06,1.86-.14,2.71-.23l.23.79Z"/>
        <path class="cls-1" d="M599.06,562.12c.51-.06,1.07-.06,1.69,0h1.92c1.13.08,2.2.11,3.28.11h3.28v.79c-.62.17-1.1.28-1.47.34-.31.08-.56.23-.79.45s-.42.54-.56.9c-.17.4-.28.88-.34,1.47-.17.68-.28,1.55-.34,2.6-.08.99-.17,2.23-.23,3.73,0,2.2-.06,4.04-.11,5.54v11.3c.06,2.26.14,4.18.23,5.76h-1.02c-1.13-2.49-4.63-6.47-10.51-11.98l-16.27-14.91-.23,15.48c-.08,2.26-.08,4.04,0,5.31.14,1.21.37,2.15.68,2.82.37.62.93,1.02,1.69,1.24.82.23,1.95.51,3.39.79v.45c0,.17-.06.28-.11.45-.23,0-.56-.06-1.02-.11-.45,0-.96-.06-1.47-.11h-2.37c-.9,0-2.77.11-5.54.34-.45,0-.68-.23-.68-.68,0-.28.06-.45.23-.45.23,0,.48-.03.79-.11.28-.06.59-.14.9-.23.37-.14.68-.37.9-.68.23-.51.4-1.36.56-2.49.14-1.19.23-2.94.23-5.2l.23-13.78c0-1.58-.08-2.85-.23-3.84-.17-1.05-.42-1.86-.79-2.49-.4-.59-.88-1.02-1.47-1.24-.54-.23-1.21-.4-2.03-.56v-1.02c.51.08,1.02.17,1.47.23h5.08c.73.99,1.64,2.09,2.71,3.28,1.05,1.13,2.09,2.23,3.16,3.28,1.13,1.07,2.15,2.03,3.05,2.94.9.85,1.53,1.44,1.92,1.81l14.8,14.01v-1.47c.06-.59.11-1.16.11-1.69v-1.81c.06-.59.11-1.07.11-1.47v-8.47c0-1.81-.08-3.28-.23-4.41-.08-1.19-.2-2.06-.34-2.6-.17-.45-.34-.82-.56-1.13-.17-.37-.42-.68-.79-.9-.4-.23-.85-.4-1.36-.56-.54-.14-1.19-.25-1.92-.34l.34-.68Z"/>
        <path class="cls-1" d="M613.19,562.23c1.86.08,3.73.17,5.54.23,1.86,0,3.76-.11,5.65-.34v.79c-2.2.31-3.39.85-3.62,1.58-.17.4-.28,1.13-.34,2.26-.08,1.13-.17,2.43-.23,3.84-.08,1.44-.11,2.88-.11,4.29v3.73c.23-.23.73-.73,1.58-1.58.9-.9,2.17-2.15,3.84-3.73,1.81-1.72,3.19-3.08,4.18-4.07.96-.96,1.72-1.75,2.26-2.37.51-.59.85-1.05,1.02-1.36.14-.28.23-.59.23-.9,0-.82-.85-1.27-2.49-1.36v-.9l5.2.11c.68,0,1.36-.03,2.03-.11.73-.06,1.5-.14,2.26-.23v1.02c-.62.08-1.21.28-1.81.56-.62.23-1.24.62-1.92,1.13-.68.54-1.44,1.19-2.26,1.92-.76.68-1.67,1.53-2.71,2.49-4.24,3.84-7.09,6.61-8.59,8.25l8.7,7.23c.23.17.59.45,1.13.9.51.45,1.13.99,1.81,1.58.73.62,1.53,1.3,2.37,2.03.82.68,1.64,1.36,2.49,2.03.82.62,1.61,1.19,2.37,1.69.73.54,1.36.88,1.81,1.02v.9c-.68-.17-1.33-.28-1.92-.34h-1.92c-1.07,0-2.09.03-3.05.11-.99.06-1.81.14-2.49.23v-.79c.45-.06.9-.14,1.36-.23.51-.14.79-.34.79-.56,0-.45-2.34-2.54-7-6.33-2.34-1.86-4.29-3.42-5.87-4.63-1.53-1.19-2.65-2.03-3.39-2.49v3.5c0,2.49.03,4.46.11,5.87.06,1.44.17,2.43.34,2.94.06.45.45.88,1.13,1.24.68.4,1.58.65,2.71.79v.79c-.17-.08-.45-.17-.9-.23-.45,0-.96-.06-1.47-.11h-7.34c-.54,0-1.1.03-1.69.11v-.9c.59-.06,1.07-.14,1.47-.23.45-.06.85-.28,1.24-.68.14-.23.28-.62.45-1.24.14-.68.25-1.72.34-3.16.06-1.13.14-2.6.23-4.41.06-1.86.11-3.87.11-5.99,0-1.72-.06-3.22-.11-4.52v-2.94c-.08-1.41-.11-2.6-.11-3.5,0-.96-.08-1.72-.23-2.26-.17-.59-.51-1.02-1.02-1.24-.45-.28-1.13-.48-2.03-.56l-.11-.9Z"/>
        <path class="cls-1" d="M666.17,593.41c1.95,0,3.78-.48,5.54-1.47,1.72-.96,3.08-2.37,4.07-4.18,1.19-2.03,1.81-4.52,1.81-7.46,0-2.32-.4-4.52-1.13-6.55-.76-2.03-1.78-3.78-3.05-5.31-1.3-1.58-2.82-2.77-4.63-3.62-1.75-.9-3.59-1.36-5.54-1.36-1.58,0-3.14.31-4.63.9-1.44.62-2.71,1.47-3.84,2.6-1.07,1.13-1.89,2.54-2.49,4.18-.62,1.58-.9,3.39-.9,5.42,0,2.26.37,4.41,1.13,6.44.82,2.03,1.92,3.84,3.28,5.42,1.41,1.53,2.99,2.71,4.75,3.62,1.81.9,3.67,1.36,5.65,1.36ZM681.42,578.27c0,2.43-.45,4.63-1.36,6.67s-2.15,3.81-3.73,5.31c-1.53,1.53-3.33,2.71-5.42,3.62-2.12.82-4.41,1.24-6.89,1.24s-4.72-.45-6.67-1.36c-1.89-.9-3.59-2.09-5.08-3.62-1.44-1.58-2.57-3.39-3.39-5.42-.85-2.09-1.24-4.21-1.24-6.33,0-2.26.45-4.41,1.36-6.44.9-2.03,2.15-3.78,3.73-5.31,1.58-1.5,3.39-2.71,5.42-3.62,2.09-.9,4.32-1.36,6.67-1.36,2.09,0,4.12.42,6.1,1.24,2.03.85,3.78,1.98,5.31,3.39,1.58,1.44,2.82,3.22,3.73,5.31.96,2.03,1.47,4.26,1.47,6.67Z"/>
        <path class="cls-1" d="M685.72,562.45c.82,0,1.53.06,2.15.11h7.57c.82,0,1.84-.03,3.05-.11l.11,1.02c-1.3.08-2.32.31-3.05.68-.68.4-1.02.85-1.02,1.36,0,.9,1.3,4.91,3.95,11.98,1.27,3.56,2.26,6.3,2.94,8.25.73,1.89,1.24,2.99,1.47,3.28.23-.59.4-1.16.56-1.69.23-.59.48-1.19.79-1.81.37-.96.68-1.81.9-2.49.28-.68.48-1.02.56-1.02l4.41-9.83c-.76-1.64-1.41-3.05-1.92-4.18-.45-1.13-.85-1.95-1.13-2.49-.62-1.19-1.67-1.84-3.16-1.92l-.11-1.02c.51,0,1.05.06,1.58.11h2.37c1.58,0,2.99-.03,4.29-.11,1.36-.06,2.51-.11,3.5-.11v.79c-1.36.17-2.34.4-2.94.68-.62.31-.9.76-.9,1.36,0,.99,1.19,4.83,3.62,11.52,1.19,3.33,2.17,6.04,2.94,8.13.73,2.03,1.3,3.45,1.69,4.18.9-2.26,1.75-4.52,2.6-6.78.9-2.26,1.72-4.58,2.49-7,1.64-4.75,2.49-7.68,2.49-8.81,0-2.09-1.64-3.16-4.86-3.16l-.11-.9,5.87.11h2.49c1.19-.06,2.43-.11,3.73-.11v.79c-1.58.17-2.82.79-3.73,1.92-.45.54-.9,1.3-1.36,2.26-.45.99-.96,2.2-1.47,3.62l-4.86,13.67c-.76,2.12-1.33,3.59-1.69,4.41-.17.4-.45,1.19-.9,2.37-.4,1.13-.88,2.68-1.47,4.63l-.79-.11c-.68-1.81-1.3-3.53-1.81-5.2-.45-1.72-.99-3.45-1.58-5.2l-4.29-11.52c-1.89,4.07-3.36,7.32-4.41,9.72-.99,2.43-1.67,4.12-2.03,5.08-.45,1.21-.88,2.43-1.24,3.62-.4,1.21-.76,2.4-1.13,3.62h-.68l-6.33-18.3c-1.07-3.16-2.01-5.71-2.82-7.68-.76-2.03-1.36-3.5-1.81-4.41-.9-1.64-2.37-2.4-4.41-2.26l-.11-1.02Z"/>
        <path class="cls-1" d="M754.55,562.34h3.84c1.36-.06,2.71-.14,4.07-.23-.17,1.81-.34,3.25-.56,4.29-.17.99-.4,1.69-.68,2.15l-.68-.11c0-.28.03-.68.11-1.13.06-.51.11-.85.11-1.02,0-.9-.56-1.58-1.69-2.03-1.13-.51-3.02-.79-5.65-.79-1.58,0-2.99.06-4.18.11-1.21.08-2.43.23-3.62.45-.17,1.07-.28,2.12-.34,3.16-.08.99-.11,2.01-.11,3.05v7.23h7.34c1.13-.06,2.03-.11,2.71-.11.68-.06,1.16-.11,1.47-.11.37-.06.62-.11.79-.11.37-.14.68-.48.9-1.02.23-.51.48-1.27.79-2.26h.68v9.49h-.9c0-1.41-.17-2.37-.45-2.82-.31-.51-.73-.93-1.24-1.24-.54-.23-1.41-.37-2.6-.45-1.21-.06-2.82-.11-4.86-.11h-1.58c-.45,0-.88.06-1.24.11-.31,0-.62.06-.9.11h-.9c0,1.81-.06,3.36-.11,4.63v3.28c0,.9.03,1.81.11,2.71.06.85.17,1.81.34,2.94,1.05.31,2.03.54,2.94.68.9.08,2.09.11,3.62.11,3.76,0,6.44-.4,8.02-1.24.82-.45,1.5-1.02,2.03-1.69.51-.73,1.05-1.81,1.58-3.16h.79c-.23,1.13-.42,2.12-.56,2.94-.17.85-.31,1.47-.45,1.92-.4,1.07-.76,1.98-1.13,2.71-1.36-.08-2.8-.11-4.29-.11s-2.99-.06-4.41-.11h-8.13c-2.57.06-5.14.17-7.68.34v-.9c1.27-.23,2.06-.45,2.37-.68.37-.23.62-.51.79-.9.06-.37.14-.93.23-1.69.06-.73.14-1.86.23-3.39.06-.73.11-1.58.11-2.49.06-.96.11-1.92.11-2.82v-4.86l-.11-6.55c0-3.08-.17-5.03-.45-5.87-.23-.59-.56-.96-1.02-1.13-.4-.23-1.02-.45-1.92-.68l.11-.56h16.27Z"/>
      </g>
    </g>
  </g>
</svg>